<?xml version="1.0" encoding="utf-8"?>
<!-- Generator: Adobe Illustrator 16.0.0, SVG Export Plug-In . SVG Version: 6.00 Build 0)  -->
<!DOCTYPE svg PUBLIC "-//W3C//DTD SVG 1.1//EN" "http://www.w3.org/Graphics/SVG/1.1/DTD/svg11.dtd">
<svg version="1.1" id="Layer_1" xmlns="http://www.w3.org/2000/svg" xmlns:xlink="http://www.w3.org/1999/xlink" x="0px" y="0px"
	 width="186px" height="40px" viewBox="0 0 186 40" enable-background="new 0 0 186 40" xml:space="preserve">
<g>
	<path fill="#42B549" d="M155.201,9.553h4.385v21.242h-0.307c-2.252,0-4.078-1.824-4.078-4.078V9.553L155.201,9.553z
		 M118.219,31.164c-2.801,0.596-5.551,0.137-8.23-1.361c-2.617-1.461-4.367-3.635-5.246-6.504
		c-1.775-5.808,1.861-12.278,7.711-13.844c2.898-0.776,5.678-0.425,8.299,1.042c4.389,2.4,6,6.3,5.701,11.132l-17.67-0.035
		c0.26,2,1.5,3.6,3.199,4.5c1.762,1,3.4,1.199,4.9,0.744c1.668-0.523,3.021-1.885,4.121-3.152l3.604,2.623
		c-1.457,2.668-3.436,4.205-6.41,4.801h0.021V31.164z M121.566,17.636c-0.555-1.715-1.25-2.558-2.848-3.451
		c-3.801-2.123-7.541-0.315-9.281,3.434l12.129,0.015V17.636L121.566,17.636z M181.602,18.876c0-1.729-0.652-3.098-1.969-4.135
		c-1.184-0.933-2.664-1.406-4.461-1.406c-3.969,0-6.518,3.104-6.518,6.899c0,3.699,2.701,6.699,6.5,6.756
		c2.623,0,4.029-1.533,5.527-3.443v5.508c-0.766,0.572-1.643,1.195-2.537,1.5c-0.945,0.396-2.072,0.588-3.377,0.588
		c-6.313,0-10.477-5.229-10.477-11.27c0-3.104,0.963-5.668,2.904-7.668c2.059-2.12,4.758-3.171,8.063-3.171
		c6.27,0,10.801,3.6,10.801,10.101v11.574h-0.309c-2.252,0-4.078-1.826-4.078-4.078v-7.84L181.602,18.876z M159.32,7.032
		c-0.461,0.517-1.121,0.754-1.926,0.754c-1.506,0-2.584-1.11-2.584-2.605c0-1.527,1.059-2.561,2.584-2.561
		c1.467,0,2.6,1.1,2.6,2.561c0.002,0.744-0.215,1.34-0.662,1.852H159.32z M146.936,28.014c-2.016,2.162-4.604,3.24-7.744,3.24
		c-3.316,0-6.02-1.146-8.074-3.439c-1.934-2.172-2.895-4.895-2.895-8.137c0-5.737,4.43-10.532,10.258-10.532
		c2.248,0,4.199,0.5,6.199,1.555v4.75c-1.58-1.072-3.564-2.094-5.525-2.094c-4.086,0-6.521,2.813-6.521,6.798
		c0,3.9,2.602,6.9,6.602,6.887c1.822,0,3.324-0.686,4.525-2.063c1.193-1.369,1.816-3.381,1.816-6.081v-14.8
		c0-2.252,1.824-4.078,4.078-4.078h0.307v19.546c0.027,3.428-0.973,6.256-2.959,8.4l-0.066,0.039V28.014z M99.449,28.146
		c-2.021,2.051-4.439,3.082-7.241,3.076c-2.266,0-4.191-0.463-6.158-1.604v-4.701c1.582,1.1,3.601,2.1,5.5,2.092
		c4.086,0,6.522-2.813,6.522-6.799c0-3.988-2.518-6.884-6.605-6.884c-1.827,0-3.307,0.656-4.463,1.971
		c-1.239,1.426-1.881,3.464-1.881,6.157V40.02h-0.308c-2.251,0-4.078-1.826-4.078-4.078V20.764c0-6.442,3.938-11.644,10.708-11.644
		c3.344,0,6.1,1.1,8.1,3.424c1.938,2.1,2.9,4.9,2.9,8.099c0.014,2.91-1.016,5.391-3,7.469h0.004V28.146z"/>
	<path fill="#42B549" d="M28.754,15.231c-1.209-1.265-2.744-1.898-4.631-1.898c-4.037,0-6.453,2.941-6.453,6.8
		c0,3.898,2.5,6.799,6.5,6.842c3.979,0,6.453-2.996,6.453-6.842c0-2.043-0.623-3.681-1.813-4.944h-0.056V15.231z M71.897,15.214
		c-1.209-1.264-2.744-1.898-4.631-1.898c-4.036,0-6.452,2.942-6.452,6.841c0,3.9,2.5,6.801,6.5,6.801
		c3.98,0,6.452-2.996,6.452-6.844c0.001-2.042-0.597-3.68-1.836-4.942h-0.033V15.214z M75.063,28.113
		c-2.166,2.078-4.771,3.117-7.796,3.125c-2.998,0-5.587-1.043-7.753-3.119c-2.174-2.084-3.258-4.736-3.258-7.936
		c0-6.237,4.765-11.054,11.012-11.054c2.998,0,5.6,1,7.8,3.143c2.188,2.1,3.3,4.799,3.3,7.899c-0.01,3.209-1.092,5.838-3.275,7.928
		h-0.029V28.113z M52.424,14.665c-0.644,1.079-1.143,1.854-1.494,2.3c-0.387,0.508-0.77,0.916-1.146,1.194
		c3.049,1,4.2,3.101,4.2,6.253v6.373h-0.308c-2.252,0-4.078-1.826-4.078-4.078v-1.863c0-2.037-0.914-3.418-3.071-3.418h-3.983v9.359
		h-0.308c-2.252,0-4.078-1.826-4.078-4.078V4.078C38.172,1.837,40.008,0,42.239,0h0.308v17.159h1.297
		c1.424,0,2.359-0.486,2.896-1.407l3.684-6.218l4.998-0.006L52.424,14.665z M31.92,28.109c-2.168,2.078-4.771,3.119-7.797,3.119
		c-2.996,0-5.586-1.043-7.752-3.119c-2.176-2.084-3.259-4.738-3.259-7.936c0-6.237,4.765-11.054,11.011-11.054
		c3,0,5.601,1,7.801,3.126c2.188,2.1,3.3,4.8,3.3,7.898c-0.011,3.234-1.119,5.863-3.253,7.953H31.92V28.109z M4.416,13.766v10.525
		c0,1.799,0.799,2.299,2.5,2.293h4.901v4.211H6.418C2.127,30.783,0,27.857,0,23.803V8.344c0-2.252,1.826-4.078,4.078-4.078h0.309
		v5.286h7.41v4.213l-7.381,0.049"/>
</g>
</svg>
